<?xml version="1.0" encoding="iso-8859-1"?><svg viewBox="0 0 512 512" xmlns="http://www.w3.org/2000/svg" xmlns:xlink="http://www.w3.org/1999/xlink"><style>:root>svg{display:none}:root>svg:target{display:block}</style><svg viewBox="0 0 240.823 240.823" id="back" xmlns="http://www.w3.org/2000/svg"><path d="M57.633 129.007L165.93 237.268c4.752 4.74 12.451 4.74 17.215 0 4.752-4.74 4.752-12.439 0-17.179l-99.707-99.671 99.695-99.671c4.752-4.74 4.752-12.439 0-17.191-4.752-4.74-12.463-4.74-17.215 0L57.621 111.816c-4.679 4.691-4.679 12.511.012 17.191z"/></svg><svg viewBox="0 0 512 512" id="email" xmlns="http://www.w3.org/2000/svg"><path d="M467 61H45C20.218 61 0 81.196 0 106v300c0 24.72 20.128 45 45 45h422c24.72 0 45-20.128 45-45V106c0-24.72-20.128-45-45-45zm-6.214 30L256.954 294.833 51.359 91h409.427zM30 399.788V112.069l144.479 143.24L30 399.788zM51.213 421l144.57-144.57 50.657 50.222c5.864 5.814 15.327 5.795 21.167-.046L317 277.213 460.787 421H51.213zM482 399.787L338.213 256 482 112.212v287.575z"/></svg><svg viewBox="0 0 133.61 94.4" id="logo" xmlns="http://www.w3.org/2000/svg"><defs><style>.ccls-1,.ccls-5{font-size:44.7px;font-family:Montserrat-Regular,Montserrat}.ccls-1{fill:#ff7900}.ccls-2{letter-spacing:-.01em}.ccls-3{letter-spacing:-.02em}.ccls-4{letter-spacing:0}.ccls-5{fill:#fff}.ccls-6{letter-spacing:-.01em}</style></defs><g id="cСлой_2" data-name="Слой 2"><g id="cСлой_1-2" data-name="Слой 1"><text class="ccls-1" transform="translate(0 37.99)"><tspan class="ccls-2">A</tspan><tspan x="31.6" y="0">u</tspan><tspan class="ccls-3" x="61.68" y="0">t</tspan><tspan class="ccls-4" x="78.98" y="0">o</tspan></text><text class="ccls-5" transform="translate(36.57 82.69)">R<tspan class="ccls-6" x="32.32" y="0">e</tspan><tspan x="58.64" y="0">al</tspan></text></g></g></svg><svg viewBox="0 0 512 512" id="maps-and-flags" xmlns="http://www.w3.org/2000/svg"><path d="M256 0C153.755 0 70.573 83.182 70.573 185.426c0 126.888 165.939 313.167 173.004 321.035 6.636 7.391 18.222 7.378 24.846 0 7.065-7.868 173.004-194.147 173.004-321.035C441.425 83.182 358.244 0 256 0zm0 469.729c-55.847-66.338-152.035-197.217-152.035-284.301 0-83.834 68.202-152.036 152.035-152.036s152.035 68.202 152.035 152.035C408.034 272.515 311.861 403.37 256 469.729z"/><path d="M256 92.134c-51.442 0-93.292 41.851-93.292 93.293S204.559 278.72 256 278.72s93.291-41.851 93.291-93.293S307.441 92.134 256 92.134zm0 153.194c-33.03 0-59.9-26.871-59.9-59.901s26.871-59.901 59.9-59.901 59.9 26.871 59.9 59.901-26.871 59.901-59.9 59.901z"/></svg><svg viewBox="0 0 512.002 512.002" id="next" xmlns="http://www.w3.org/2000/svg"><path d="M388.425 241.951L151.609 5.79c-7.759-7.733-20.321-7.72-28.067.04-7.74 7.759-7.72 20.328.04 28.067l222.72 222.105-222.728 222.104c-7.759 7.74-7.779 20.301-.04 28.061a19.8 19.8 0 0014.057 5.835 19.79 19.79 0 0014.017-5.795l236.817-236.155c3.737-3.718 5.834-8.778 5.834-14.05s-2.103-10.326-5.834-14.051z"/></svg><svg viewBox="0 0 236 497.42" id="paper-clip" xmlns="http://www.w3.org/2000/svg"><defs><style>.fcls-1{fill:#010101}</style></defs><g id="fСлой_2" data-name="Слой 2"><path class="fcls-1" d="M0 408.09V118a118 118 0 01236 0v215.14a15 15 0 01-30 0V118a88 88 0 00-176 0v290.09a59.33 59.33 0 10118.65 0V124.65a30.65 30.65 0 10-61.3 0v208.49a15 15 0 01-30 0V124.65a60.65 60.65 0 01121.3 0v283.44a89.33 89.33 0 11-178.65 0z" id="fСлой_1-2" data-name="Слой 1"/></g></svg><svg viewBox="0 0 512 512" id="telephone" xmlns="http://www.w3.org/2000/svg"><path d="M453.202 386.293L378.52 311.61c-15.546-15.544-40.751-15.562-56.314 0l-21.75 21.75a366.59 366.59 0 01-121.798-121.798l23.848-23.847c15.524-15.526 15.524-40.789-.001-56.315l-74.682-74.682c-15.502-15.5-40.671-15.644-56.361.047l-46.93 47.295C2.078 122.914-5.82 153.87 4.42 183.209c52.546 150.577 173.814 271.844 324.39 324.39 28.33 9.884 57.422 2.492 75.919-16.565.267-.236.528-.48.783-.736l47.69-47.691c15.526-15.525 15.526-40.787 0-56.314zm-23.79 32.524L382.8 465.429c-.569.472-1.107.985-1.613 1.535-9.811 10.665-25.594 14.347-41.29 8.867C198.919 426.636 85.384 313.1 36.188 172.121c-5.633-16.141-1.569-32.864 10.354-42.605.453-.37.887-.764 1.299-1.179L95.3 80.508a6.149 6.149 0 014.367-1.809c.956 0 2.793.234 4.367 1.809l74.68 74.682a6.183 6.183 0 01.001 8.733l-33.043 33.043a16.822 16.822 0 00-2.758 20.161 400.244 400.244 0 00151.978 151.977 16.823 16.823 0 0020.161-2.757l30.945-30.945a6.177 6.177 0 018.733 0l74.682 74.682a6.184 6.184 0 01-.001 8.733zM268.902 131.332c-9.291 0-16.823 7.532-16.823 16.823s7.531 16.823 16.823 16.823c43.086 0 78.139 35.053 78.139 78.139 0 9.291 7.532 16.823 16.823 16.823s16.823-7.532 16.823-16.823c0-61.638-50.147-111.785-111.785-111.785z"/><path d="M268.902 65.304c-9.291 0-16.823 7.532-16.823 16.823s7.531 16.823 16.823 16.823c79.494 0 144.167 64.673 144.167 144.167 0 9.291 7.532 16.823 16.823 16.823s16.823-7.532 16.823-16.823c0-98.046-79.767-177.813-177.813-177.813z"/><path d="M440.799 71.22C394.884 25.305 333.835.019 268.901.019c-9.291 0-16.823 7.532-16.823 16.823s7.532 16.823 16.823 16.823c115.494 0 209.454 93.96 209.454 209.453 0 9.291 7.532 16.823 16.823 16.823s16.823-7.532 16.823-16.823C512 178.183 486.714 117.136 440.799 71.22z"/></svg></svg>