<?xml version="1.0" encoding="utf-8"?><!DOCTYPE svg PUBLIC "-//W3C//DTD SVG 1.1//EN" "http://www.w3.org/Graphics/SVG/1.1/DTD/svg11.dtd"><svg viewBox="0 0 592 592" xmlns="http://www.w3.org/2000/svg" xmlns:xlink="http://www.w3.org/1999/xlink"><style>:root>svg{display:none}:root>svg:target{display:block}</style><svg fill="none" viewBox="0 0 364 369" id="accountant" xmlns="http://www.w3.org/2000/svg"><path fill-rule="evenodd" clip-rule="evenodd" d="M273.6 188.2c49.8 0 90.2 40.4 90.2 90.2 0 49.8-40.4 90.2-90.2 90.2-49.8 0-90.2-40.4-90.2-90.2-.1-49.8 40.3-90.2 90.2-90.2zM271 327.3v-9.7c-4.9-.6-8.8-1.7-11.8-3.3-3-1.6-5.7-4.1-7.9-7.6s-3.5-7.8-3.8-12.8l9.8-1.8c.8 5.2 2.1 9 4 11.5 2.7 3.5 6 5.4 9.8 5.8v-30.9c-4-.8-8.1-2.3-12.2-4.6-3.1-1.7-5.5-4.1-7.1-7.2-1.6-3.1-2.5-6.5-2.5-10.4 0-6.9 2.4-12.5 7.3-16.8 3.3-2.9 8.1-4.6 14.6-5.3v-4.6h5.7v4.6c5.6.5 10.1 2.2 13.4 5 4.3 3.5 6.8 8.4 7.7 14.5l-10 1.5c-.6-3.8-1.8-6.7-3.6-8.8-1.8-2-4.3-3.4-7.5-4v28c4.9 1.2 8.1 2.2 9.7 2.9 3 1.3 5.5 2.9 7.4 4.8 1.9 1.9 3.4 4.2 4.4 6.8 1 2.6 1.5 5.5 1.5 8.5 0 6.7-2.2 12.3-6.4 16.8-4.3 4.5-9.8 6.9-16.6 7.2v9.8l-5.9.1zm0-85c-3.8.6-6.8 2.1-8.9 4.5-2.2 2.4-3.3 5.3-3.3 8.7 0 3.3.9 6.1 2.8 8.3 1.9 2.2 5 4 9.4 5.3v-26.8zm5.7 67.1c3.8-.5 6.9-2.1 9.4-4.9 2.5-2.8 3.7-6.3 3.7-10.4 0-3.5-.9-6.4-2.6-8.5-1.7-2.1-5.2-4.1-10.4-5.7l-.1 29.5zm-3.1-104.7c20.4 0 38.8 8.3 52.1 21.6 13.3 13.3 21.6 31.8 21.6 52.1 0 20.4-8.3 38.8-21.6 52.1-13.3 13.3-31.8 21.6-52.1 21.6-20.4 0-38.8-8.3-52.1-21.6-13.3-13.3-21.6-31.8-21.6-52.1 0-20.4 8.3-38.8 21.6-52.1 13.3-13.4 31.7-21.6 52.1-21.6zm44 29.7c-11.3-11.3-26.8-18.2-44-18.2s-32.7 7-44 18.2c-11.3 11.3-18.2 26.8-18.2 44s7 32.7 18.2 44c11.3 11.3 26.8 18.2 44 18.2s32.7-7 44-18.2c11.3-11.3 18.2-26.8 18.2-44s-7-32.7-18.2-44z" fill="#222"/><path fill-rule="evenodd" clip-rule="evenodd" d="M180.1 300.6H9.4C-7.5 300.6-11.9 189 87 189c9.7 8.8 21.2 14.1 33.6 14.1 12.3 0 23.9-5.3 33.6-14.1 24.6 0 42.9 6.9 56.1 17.3-20 17.6-32.7 43.4-32.7 72.1 0 7.6.9 15.1 2.5 22.2z" fill="#222"/><path d="M68.7 115.6c4 15.5 11.5 29.4 21.3 39.3 8.8 8.8 19.3 14.2 30.6 14.2 12 0 23.2-6.1 32.3-16 10.2-11 17.7-26.5 21-43.5.4-2.1 1.6-3.8 3.2-4.9 6.4-4.9 9-10.4 9.1-14.4-3.3.9-6.9-.5-8.7-3.6-2.8-4.7-4.1-29.7-27-38.3-4.5-1.7-9.3-3-14.3-3.9-43-7.8-39.9 15.2-39.7 15.1.7 5.1-3.5 9.4-8.5 8.9-30-.8-23.8 16.2-23.7 16.2 1 4.2-1.5 8.4-5.7 9.5-1.3.3-2.6.3-3.9 0 1.1 4 4.6 9.9 12 17.6 1.1 1 1.7 2.4 2 3.8zm10.2 50.2c-11.4-11.4-20.2-27.3-25-44.9-11.2-12.2-15.2-22.4-15.2-29.4 0-3.4.8-6.3 2.2-8.6 1.6-2.6 3.8-4.4 6.4-5.3-2-17-1.4-48.4 28.9-51.7C78 13.7 87.8-6.4 134 2c5.9 1.1 11.6 2.6 17 4.6 14.3 5.3 26.5 13.9 34.6 25.1 8.3 11.6 12.1 25.7 9.2 41.8-.1.6-.2 1.2-.4 1.8 2.6 1.5 4.6 3.8 5.8 6.7 1 2.3 1.5 5.1 1.5 8.2-.1 7.5-3.9 17.2-13.2 25.1-4.1 18.6-12.7 35.8-24.3 48.2-12 13-27.1 21-43.7 21-15.6.2-29.9-7-41.6-18.7z" fill="#222"/></svg><svg viewBox="0 0 448 448" id="add" xmlns="http://www.w3.org/2000/svg"><path d="M408 184H272a8 8 0 01-8-8V40c0-22.09-17.91-40-40-40s-40 17.91-40 40v136a8 8 0 01-8 8H40c-22.09 0-40 17.91-40 40s17.91 40 40 40h136a8 8 0 018 8v136c0 22.09 17.91 40 40 40s40-17.91 40-40V272a8 8 0 018-8h136c22.09 0 40-17.91 40-40s-17.91-40-40-40zm0 0"/></svg><svg fill="none" viewBox="0 0 369 337" id="auto-financing" xmlns="http://www.w3.org/2000/svg"><path fill-rule="evenodd" clip-rule="evenodd" d="M27.7 290.5s-22.5-2.6-22.1-33.1c0-41.6-6.6-80.5 39.4-103.5 0 0 13.6-77 67.8-79.2h3.6c.8 4.6 2.1 9.1 3.8 13.4h-6.9c-10.4 0-19 3.8-26.6 10.8l-3.3 3.3c-8.8 9.5-15 22.3-19.3 34.5-.4 1.2-.9 2.5-1.3 3.7h243c-.4-1.3-.9-2.7-1.4-4-4.3-12.1-10.5-24.7-19.2-34.2-8.1-8.8-17.7-14.1-29.9-14.1h-7.9c1.7-4.3 3-8.8 3.8-13.4h3.6c54.1 2.2 67.8 79.2 67.8 79.2 46 23 39.4 61.9 39.4 103.5.4 30.6-22.1 33.1-22.1 33.1H27.7zm99-83.4H242c6.1 0 15.4 5.2 11 8.5s-32.6 26.5-35.5 26.5h-66.3c-2.9 0-31.1-23.2-35.5-26.5-4.4-3.3 4.9-8.5 11-8.5zm192.3-.9l-29.6 4.1c-4.6.6-8.4 3.8-8.4 8.4v7c0 4.6 3.8 8.4 8.4 8.4H319c4.6 0 8.4-3.8 8.4-8.4v-11.1c0-4.6-3.8-9-8.4-8.4zm-269.4 0l29.6 4.1c4.6.6 8.4 3.8 8.4 8.4v7c0 4.6-3.8 8.4-8.4 8.4H49.6c-4.6 0-8.4-3.8-8.4-8.4v-11.1c0-4.6 3.8-9 8.4-8.4zM271.2 296.3v28.1c0 6.5 5.3 11.8 11.8 11.8h37.6c6.5 0 11.8-5.3 11.8-11.8v-28.1h-61.2zM36.3 296.3v28.1c0 6.5 5.3 11.8 11.8 11.8h37.6c6.5 0 11.8-5.3 11.8-11.8v-28.1H36.3z" fill="#222"/><path fill-rule="evenodd" clip-rule="evenodd" d="M31.9 157.9h-17c-6.4 0-11.7-5.2-11.7-11.7v-9c0-6.4 5.2-11.7 11.7-11.7h17c6.4 0 11.7 5.2 11.7 11.7v9c-.1 6.5-5.3 11.7-11.7 11.7zM353.8 157.9h-17c-6.4 0-11.7-5.2-11.7-11.7v-9c0-6.4 5.2-11.7 11.7-11.7h17c6.4 0 11.7 5.2 11.7 11.7v9c-.1 6.5-5.3 11.7-11.7 11.7z" fill="#222"/><path d="M127 200.9h-5.9v56h5.9v-56zM139.1 200.9h-5.9v56h5.9v-56zM151.1 200.9h-5.9v56h5.9v-56zM163.2 200.9h-5.9v56h5.9v-56zM175.2 200.9h-5.9v56h5.9v-56zM187.3 200.9h-5.9v56h5.9v-56zM199.3 200.9h-5.9v56h5.9v-56zM211.3 200.9h-5.9v56h5.9v-56zM223.4 200.9h-5.9v56h5.9v-56zM235.4 200.9h-5.9v56h5.9v-56zM247.5 200.9h-5.9v56h5.9v-56z" fill="#222"/><path fill-rule="evenodd" clip-rule="evenodd" d="M363.8 257H4.8c-2.6 0-4.8 2.2-4.8 4.8v23.9c0 2.6 2.2 4.8 4.8 4.8h359c2.6 0 4.8-2.2 4.8-4.8v-23.9c0-2.7-2.1-4.8-4.8-4.8z" fill="#222"/><path d="M248.7 117.8c7.4 0 14.2 3 19.1 7.9 4.9 4.9 7.9 11.6 7.9 19.1 0 7.4-3 14.2-7.9 19.1-4.9 4.9-11.6 7.9-19.1 7.9-7.4 0-14.2-3-19.1-7.9-4.9-4.9-7.9-11.6-7.9-19.1 0-7.4 3-14.2 7.9-19.1 4.9-4.9 11.6-7.9 19.1-7.9zm13.6 13.3c-3.5-3.5-8.3-5.6-13.6-5.6-5.3 0-10.1 2.2-13.6 5.6-3.5 3.5-5.6 8.3-5.6 13.6 0 5.3 2.2 10.1 5.6 13.6 3.5 3.5 8.3 5.6 13.6 5.6 5.3 0 10.1-2.2 13.6-5.6 3.5-3.5 5.6-8.3 5.6-13.6 0-5.3-2.1-10.1-5.6-13.6z" fill="#222"/><path fill-rule="evenodd" clip-rule="evenodd" d="M246.6 62.8c0-17.3-7-33-18.4-44.4C216.9 7 201.2 0 183.8 0s-33 7-44.4 18.4C128 29.8 121 45.4 121 62.8s7 33 18.4 44.4c11.4 11.4 27 18.4 44.4 18.4s33-7 44.4-18.4c11.4-11.4 18.4-27.1 18.4-44.4zm-39.2 12.5c0 5.6-1.8 10.3-5.4 14.1-3.6 3.8-8.2 5.8-13.9 6v8.2h-4.8v-8.1c-4.1-.5-7.4-1.4-9.9-2.7-2.5-1.3-4.7-3.4-6.6-6.3-1.8-2.9-2.9-6.5-3.2-10.7l8.2-1.5c.6 4.4 1.7 7.6 3.3 9.6 2.3 2.9 5 4.5 8.2 4.8V62.8c-3.3-.6-6.7-1.9-10.2-3.9-2.6-1.4-4.6-3.4-6-6-1.4-2.6-2.1-5.4-2.1-8.7 0-5.8 2-10.4 6.1-14 2.7-2.4 6.8-3.9 12.2-4.4v-3.9h4.8v3.9c4.7.4 8.5 1.8 11.2 4.1 3.6 2.9 5.7 7 6.4 12.1l-8.4 1.3c-.5-3.2-1.5-5.6-3-7.3-1.5-1.7-3.6-2.8-6.2-3.4V56c4.1 1 6.8 1.8 8.1 2.4 2.5 1.1 4.6 2.5 6.2 4 1.6 1.6 2.8 3.5 3.7 5.7.8 2.3 1.3 4.7 1.3 7.2z" fill="#222"/><path fill-rule="evenodd" clip-rule="evenodd" d="M183.3 55V32.6c-3.2.5-5.6 1.7-7.5 3.8-1.8 2-2.7 4.5-2.7 7.3s.8 5.1 2.3 6.9c1.6 1.8 4.2 3.3 7.9 4.4zM195.9 84.6c2.1-2.3 3.1-5.2 3.1-8.7 0-2.9-.7-5.3-2.2-7.1-1.5-1.8-4.4-3.4-8.7-4.8v24.7c3.2-.4 5.8-1.8 7.8-4.1z" fill="#222"/></svg><svg viewBox="0 0 132.6 240.82" id="back" xmlns="http://www.w3.org/2000/svg"><g data-name="Слой 2"><g data-name="Capa 1"><path data-name="Chevron Right" d="M3.52 129l108.3 108.26A12.16 12.16 0 00129 220.09l-99.68-99.67L129 20.75a12.17 12.17 0 00-17.2-17.2L3.51 111.81A12.28 12.28 0 003.52 129z"/></g></g></svg><svg viewBox="0 0 412.72 412.72" id="book" xmlns="http://www.w3.org/2000/svg"><path d="M404.72 82.944h-27.2v-9.28a8 8 0 00-5.76-8 225.345 225.345 0 00-57.68-7.36c-32 0-75.6 7.2-107.84 40-32-33.12-75.92-40-107.84-40a225.345 225.345 0 00-57.68 7.36 8 8 0 00-5.76 8v9.2H8a8 8 0 00-8 8v255.52a8 8 0 008 8 7.996 7.996 0 003.92-1.04c.8-.4 80.8-44.16 192.48-16h1.92a8.008 8.008 0 001.92 0c112-28.4 192 15.28 192.48 16a8 8 0 0012-6.88V90.944a8 8 0 00-8-8zM16 333.664V98.944h19.12v200.64a8 8 0 009.2 8 350.096 350.096 0 0150-4 207.516 207.516 0 0168.32 10.32A294.1 294.1 0 0016 333.664zm78.32-46a351.994 351.994 0 00-43.52 2.8V79.984a220.645 220.645 0 0147.44-5.28c29.92 0 71.2 6.88 99.84 39.2l.24 199.28c-16.64-10.88-49.12-25.52-104-25.52zm120-173.76c28.64-32 69.92-39.2 99.84-39.2a221.61 221.61 0 0147.44 5.28v210.48a351.895 351.895 0 00-43.28-2.88c-54.56 0-87.12 14.64-104 25.52v-199.2zm182.32 219.76a294.158 294.158 0 00-146.96-19.76 208.008 208.008 0 0168.64-10.32 349.994 349.994 0 0150.32 3.92 8 8 0 009.2-8V98.944h19.12l-.32 234.72z"/></svg><svg viewBox="0 0 512 512" id="book(1)" xmlns="http://www.w3.org/2000/svg"><path d="M128 222c2.63 0 5.21-1.07 7.07-2.93S138 214.63 138 212s-1.07-5.21-2.93-7.07S130.63 202 128 202s-5.21 1.07-7.07 2.93S118 209.37 118 212s1.07 5.21 2.93 7.07S125.37 222 128 222zM195 276h200c5.522 0 10-4.477 10-10v-92c0-5.523-4.478-10-10-10H195c-5.523 0-10 4.477-10 10v92c0 5.523 4.477 10 10 10zm10-92h180v72H205z"/><path d="M462 0H86C60.636 0 40 20.636 40 46v420c0 25.364 20.636 46 46 46h376c5.522 0 10-4.477 10-10a9.968 9.968 0 00-2.929-7.071c-15.951-15.952-15.951-41.907 0-57.858A9.973 9.973 0 00472 430V10c0-5.523-4.478-10-10-10zM326.4 20H385v83.843l-22.226-22.245a10.003 10.003 0 00-14.148 0L326.4 103.843zM60 46c0-14.336 11.664-26 26-26h32v147c0 5.523 4.477 10 10 10s10-4.477 10-10V20h168.4v108c0 4.045 2.438 7.692 6.175 9.24 3.738 1.545 8.04.69 10.899-2.172l32.226-32.253 32.226 32.253A10 10 0 00405 128V20h47v400H138V257c0-5.523-4.477-10-10-10s-10 4.477-10 10v163H86a45.725 45.725 0 00-26 8.08zm26 446c-14.336 0-26-11.664-26-26s11.664-26 26-26h356.921c-7.728 16.414-7.724 35.587.001 52z"/></svg><svg viewBox="0 0 512.002 512.002" id="car-breakdown" xmlns="http://www.w3.org/2000/svg"><path d="M241.732 207.104v-7.445h-11.388c-5.613 0-10.163-4.55-10.163-10.163s4.55-10.163 10.163-10.163h9.818c-3.695-10.271-13.52-17.618-25.062-17.618h-36.021l-29.946-53.473a13.593 13.593 0 00-11.848-6.947H40.433c-6.324 0-11.903 4.483-13.262 10.662L12.997 174.78v31.848c-6.922 1.639-12.08 7.844-12.08 15.268 0 8.673 7.031 15.706 15.706 15.706h8.612c0-20.565 16.731-37.295 37.295-37.295 20.565 0 37.295 16.731 37.295 37.295h59.106c0-20.565 16.73-37.295 37.295-37.295s37.295 16.731 37.295 37.295h2.975c8.673 0 15.706-7.031 15.706-15.706-.001-6.835-4.375-12.633-10.47-14.792zM75.074 161.809h-43.38l9.985-45.384h33.395v45.384zm45.144 27.433h-16.21a6.67 6.67 0 010-13.34h16.211a6.67 6.67 0 01-.001 13.34zm-29.035-27.433v-45.384h45.193l25.365 45.384H91.183zM398.432 128.448a21.915 21.915 0 00-19.098-11.191h-66.096c-6.734 0-12.194 5.459-12.194 12.194 0 106.379.032 110.913.032 111.272 9.748-1.968 19.327 2.422 24.383 10.412l11.915-1.934 22.602-26.805a59.025 59.025 0 017.902-7.738h-42.447v-73.012h52.439l18.624 33.256c.954-10.523 5.701-19.963 12.862-26.944l-10.924-19.51z"/><path d="M308.28 316.838a30.956 30.956 0 01-35.612-25.678c-1.732-10.674 2.224-20.98 9.633-27.817a23.499 23.499 0 016.902-16.284V106.157c0-3.253-1.299-6.371-3.611-8.661L191.77 4.513c-7.776-7.705-20.811-1.965-20.811 8.661v45.022a6.67 6.67 0 006.67 6.67c4.53 0 8.215 3.685 8.215 8.215s-3.685 8.215-8.215 8.215c-4.529 0-8.214-3.685-8.214-8.215a6.67 6.67 0 00-13.34 0c0 11.885 9.669 21.555 21.554 21.555 11.885 0 21.555-9.669 21.555-21.555 0-9.558-6.254-17.683-14.885-20.498v-21.14l80.517 79.797v150.045h-65.164c11.602-1.666 20.529-11.619 20.529-23.682 0-13.23-10.725-23.955-23.955-23.955s-23.955 10.725-23.955 23.955c0 12.064 8.927 22.016 20.529 23.682H65.956c11.602-1.666 20.529-11.619 20.529-23.682 0-13.23-10.725-23.955-23.955-23.955s-23.955 10.725-23.955 23.955c0 12.064 8.927 22.016 20.529 23.682H11.318C5.067 261.285 0 266.352 0 272.602v37.526c0 6.25 5.067 11.316 11.317 11.316h43.05c6.887-26.047 30.648-45.308 58.83-45.308s51.942 19.261 58.83 45.308h174.565a60.425 60.425 0 014.358-11.531l-42.67 6.925zM52.827 237.602c0-5.359 4.344-9.704 9.704-9.704 5.359 0 9.704 4.344 9.704 9.704s-4.344 9.704-9.704 9.704-9.704-4.344-9.704-9.704zm133.695 0c0-5.359 4.344-9.704 9.704-9.704s9.704 4.344 9.704 9.704-4.344 9.704-9.704 9.704c-5.359-.001-9.704-4.344-9.704-9.704z"/><path d="M113.199 298.369c-21.327 0-38.616 17.289-38.616 38.617 0 21.327 17.289 38.616 38.616 38.616s38.616-17.289 38.616-38.616c0-21.328-17.288-38.617-38.616-38.617zm0 54.258c-8.639 0-15.642-7.003-15.642-15.642s7.003-15.642 15.642-15.642 15.642 7.003 15.642 15.642c-.001 8.639-7.003 15.642-15.642 15.642zM366.808 336.985c0 13.629 7.067 25.599 17.729 32.472v-64.945c-10.662 6.875-17.729 18.845-17.729 32.473z"/><path d="M512.002 251.97c-.093-18.666-15.228-33.851-33.893-33.851h-73.061a42.197 42.197 0 00-32.325 15.026L346.14 264.67l-29.635 4.81-4.906-9.036a6.722 6.722 0 10-11.816 6.416l2.661 4.901-1.431.232c-7.837 1.273-13.159 8.658-11.887 16.495 1.268 7.806 8.619 13.16 16.495 11.887L356 292.198a14.373 14.373 0 008.687-4.924s24.734-28.426 33.574-37.257a1.727 1.727 0 012.948 1.223l.007 242.543c0 9.527 7.724 17.252 17.252 17.252 9.528 0 17.252-7.724 17.252-17.252V355.891h7.449v137.894c0 9.527 7.724 17.252 17.252 17.252 9.528 0 17.252-7.724 17.252-17.252l-.307-241.633a3.006 3.006 0 012.934-3.009c1.633-.04 2.916 1.232 2.991 2.865v105.618c-.019 7.941 6.232 14.392 14.171 14.412h.036c7.923 0 14.483-6.414 14.503-14.342l.001-105.726z"/><circle cx="439.442" cy="178.822" r="29.795"/></svg><svg viewBox="0 0 398.33 398.33" id="car-key" xmlns="http://www.w3.org/2000/svg"><path d="M386.202 106.329l-86.9-86.9c-11.1-11.2-27.6-15-42.5-9.9l-53.9 18.3c-13.7 4.7-24.5 15.5-29.1 29.2l-43 127.7c-1.2 3.6-.3 7.6 2.4 10.3l8.4 8.4-138 137.8c-1.8 1.8-2.9 4.3-2.9 6.8l-.7 32.4c-.1 5.6 4.4 10.2 10 10.3l65.4.3c4.9 0 9.1-3.6 9.9-8.5l5.3-31.7 30.5-4.3c5-.7 8.7-5 8.6-10.1l-.5-27.6 12.3-12.3 17.7-5.9c1.5-.5 2.8-1.3 3.9-2.4l31.8-31.8 12.2 12.2c2.6 2.6 6.4 3.6 10 2.5l130.5-39.7c14.3-4.4 25.7-15.4 30.5-29.6l18-53c5.1-14.9 1.3-31.4-9.9-42.5zm-235.7 166.2l-17.7 5.9c-1.5.5-2.8 1.3-3.9 2.4l-17 17c-1.9 1.9-3 4.5-2.9 7.3l.4 23-29 4.1c-4.3.6-7.7 4-8.5 8.3l-5.1 30.5-46.7-.1.4-18.2 135.2-135.2 24.9 24.9-30.1 30.1zm226.6-130.2l-18 53.3c-2.8 8.1-9.2 14.4-17.4 16.9l-124.8 37.9-65.2-65.3 41.1-121.8c2.7-7.8 8.8-14 16.6-16.7l53.9-18.3c7.7-2.6 16.2-.7 21.9 5.1l86.9 86.9c5.7 5.8 7.7 14.4 5 22z"/><path d="M321.602 124.629l-40.6-40.6c-12.1-12.1-31.6-12.1-43.7 0-12.1 12.1-12.1 31.6 0 43.7l40.6 40.6c12.1 12.1 31.6 12.1 43.7 0 12.1-12.1 12.1-31.6 0-43.7zm-14.2 29.5c-4.2 4.2-11.1 4.3-15.4 0l-40.6-40.6c-4.3-4.2-4.3-11.1 0-15.4 4.2-4.3 11.1-4.3 15.4 0l40.6 40.6c4.3 4.2 4.3 11.1 0 15.4z"/></svg><svg viewBox="0 0 329.269 329" id="close" xmlns="http://www.w3.org/2000/svg"><path d="M194.8 164.77L323.013 36.555c8.343-8.34 8.343-21.825 0-30.164-8.34-8.34-21.825-8.34-30.164 0L164.633 134.605 36.422 6.391c-8.344-8.34-21.824-8.34-30.164 0-8.344 8.34-8.344 21.824 0 30.164l128.21 128.215L6.259 292.984c-8.344 8.34-8.344 21.825 0 30.164a21.266 21.266 0 0015.082 6.25c5.46 0 10.922-2.09 15.082-6.25l128.21-128.214 128.216 128.214a21.273 21.273 0 0015.082 6.25c5.46 0 10.922-2.09 15.082-6.25 8.343-8.34 8.343-21.824 0-30.164zm0 0"/></svg><svg viewBox="0 0 289.28 368.64" id="documents" xmlns="http://www.w3.org/2000/svg"><defs><style>.ajcls-1,.ajcls-2{fill:#424242}.ajcls-2{fill-rule:evenodd}</style></defs><g id="ajСлой_2" data-name="Слой 2"><g id="ajСлой_1-2" data-name="Слой 1"><g id="ajLayer_1"><path class="ajcls-1" d="M29.76 53.76v-.95a23.11 23.11 0 0123.05-23h183.66a23.11 23.11 0 0123 23.05v263a23.11 23.11 0 01-23 23.05h-.95V82.57a28.85 28.85 0 00-28.81-28.81z"/><path class="ajcls-1" d="M59.52 24v-.95a23.11 23.11 0 0123-23h183.71a23.11 23.11 0 0123 23.05v263a23.11 23.11 0 01-23 23.05h-1V52.81A28.87 28.87 0 00236.47 24z"/><path class="ajcls-2" d="M190.51 102.72H39.25V97h151.26zm16.2-43.2H23.05a23.11 23.11 0 00-23 23v263a23.11 23.11 0 0023.05 23.05h183.61a23.11 23.11 0 0023-23.05v-263a23.11 23.11 0 00-23-23zM39.25 135h151.26v5.76H39.25V135zm0 38.08h151.26v5.76H39.25v-5.76zm0 38.08h75.63V217H39.25zm0 38.08h151.26V255H39.25v-5.76zm0 38.08h151.26v5.76H39.25v-5.76zm0 38.08h109.41v5.76H39.25z"/></g></g></g></svg><svg viewBox="0 0 512.001 512.001" id="file" xmlns="http://www.w3.org/2000/svg"><path d="M447.229 67.855h-43.181v-43.18C404.049 11.103 392.944 0 379.379 0H64.771C51.2 0 40.097 11.103 40.097 24.675V419.47c0 13.571 11.103 24.675 24.675 24.675h43.181v43.181c0 13.571 11.098 24.675 24.675 24.675h209.729c13.565 0 32.762-7.612 42.638-16.908l68.929-64.882c9.888-9.296 17.969-28.012 17.969-41.583l.012-296.096c-.001-13.573-11.105-24.677-24.676-24.677zM107.951 92.531v333.108h-43.18c-3.343 0-6.168-2.825-6.168-6.168V24.675c0-3.343 2.825-6.168 6.168-6.168H379.38c3.337 0 6.168 2.825 6.168 6.168v43.181H132.626c-13.577 0-24.675 11.103-24.675 24.675zM441.24 416.737l-68.929 64.877c-1.412 1.327-3.251 2.628-5.281 3.867v-56.758c0-4.238 1.709-8.051 4.528-10.888 2.844-2.819 6.656-4.533 10.894-4.533h61.718c-.957 1.3-1.937 2.497-2.93 3.435zm12.145-28.111c0 1.832-.334 3.954-.839 6.168h-70.095c-18.721.037-33.89 15.206-33.928 33.928v64.024c-2.202.445-4.324.746-6.168.746H132.626v.001c-3.35 0-6.168-2.825-6.168-6.168V92.53c0-3.343 2.819-6.168 6.168-6.168h314.602c3.343 0 6.168 2.825 6.168 6.168l-.011 296.096z"/><path d="M379.379 154.216H200.488a9.248 9.248 0 00-9.253 9.253 9.249 9.249 0 009.253 9.253h178.891c5.108 0 9.253-4.139 9.253-9.253s-4.145-9.253-9.253-9.253zM379.379 277.59H200.488a9.248 9.248 0 00-9.253 9.253 9.249 9.249 0 009.253 9.253h178.891a9.252 9.252 0 009.253-9.253 9.251 9.251 0 00-9.253-9.253zM299.187 339.277h-98.698c-5.114 0-9.253 4.139-9.253 9.253s4.139 9.253 9.253 9.253h98.698c5.108 0 9.247-4.139 9.247-9.253s-4.139-9.253-9.247-9.253zM379.379 215.903H200.488c-5.114 0-9.253 4.139-9.253 9.253s4.14 9.253 9.253 9.253h178.891c5.108 0 9.253-4.139 9.253-9.253s-4.145-9.253-9.253-9.253z"/></svg><svg viewBox="0 0 512 512" id="file(1)" xmlns="http://www.w3.org/2000/svg"><g fill="#231f20"><path d="M464.217 114.566L352.913 3.261A11.086 11.086 0 00345.043 0H77.913c-18.41 0-33.391 14.982-33.391 33.391v445.217c0 18.41 14.982 33.391 33.391 33.391h356.174c18.399 0 33.38-14.97 33.391-33.369V122.435c0-2.95-1.168-5.788-3.261-7.869zm-330.652 18.999V89.043h178.087v44.522H133.565zm311.652 345.044c0 6.144-4.986 11.13-11.13 11.13H77.913c-6.133 0-11.13-4.986-11.13-11.13V33.391c0-6.133 4.998-11.13 11.13-11.13h233.739v44.522H122.435c-6.144 0-11.13 4.986-11.13 11.13v66.783c0 6.144 4.986 11.13 11.13 11.13h322.783v322.783zm0-345.044H333.913V22.261h6.522l104.782 104.782v6.522z"/><path d="M122.435 222.609H256c6.144 0 11.13-4.986 11.13-11.13s-4.986-11.13-11.13-11.13H122.435c-6.144 0-11.13 4.986-11.13 11.13s4.986 11.13 11.13 11.13zM122.435 356.174H256c6.144 0 11.13-4.975 11.13-11.13 0-6.155-4.986-11.13-11.13-11.13H122.435c-6.144 0-11.13 4.975-11.13 11.13-.001 6.155 4.986 11.13 11.13 11.13zM111.304 278.261c0 6.155 4.986 11.13 11.13 11.13h267.13a11.12 11.12 0 0011.13-11.13 11.12 11.12 0 00-11.13-11.13h-267.13c-6.143-.001-11.13 4.975-11.13 11.13zM389.565 400.696h-267.13c-6.144 0-11.13 4.975-11.13 11.13s4.986 11.13 11.13 11.13h267.13c6.155 0 11.13-4.975 11.13-11.13s-4.975-11.13-11.13-11.13z"/></g></svg><svg viewBox="0 0 508.044 508.044" id="left-quotes-sign" xmlns="http://www.w3.org/2000/svg"><g><path d="M.108 352.536c0 66.794 54.144 120.938 120.937 120.938 66.794 0 120.938-54.144 120.938-120.938s-54.144-120.937-120.938-120.937c-13.727 0-26.867 2.393-39.168 6.61C109.093 82.118 230.814-18.543 117.979 64.303-7.138 156.17-.026 348.84.114 352.371c0 .055-.006.104-.006.165zM266.169 352.536c0 66.794 54.144 120.938 120.938 120.938s120.938-54.144 120.938-120.938S453.9 231.599 387.106 231.599c-13.728 0-26.867 2.393-39.168 6.61C375.154 82.118 496.875-18.543 384.04 64.303 258.923 156.17 266.034 348.84 266.175 352.371c0 .055-.006.104-.006.165z" fill="#ecaa0c" data-original="#000000"/></g></svg><svg viewBox="0 0 246.21 67.48" id="logo" xmlns="http://www.w3.org/2000/svg"><defs><linearGradient id="anlinear-gradient" x1="21.2" y1="70.61" x2="41.83" y2="34.88" gradientUnits="userSpaceOnUse"><stop offset=".4"/><stop offset=".9" stop-color="#fff"/></linearGradient><linearGradient id="anБезымянный_градиент_21" x1=".11" y1="56.91" x2="58.45" y2="56.91" gradientUnits="userSpaceOnUse"><stop offset="0" stop-color="#ffe794"/><stop offset=".59" stop-color="#ecaa0c"/></linearGradient><linearGradient id="anБезымянный_градиент_28" x1="21.2" y1="70.61" x2="41.83" y2="34.88" gradientUnits="userSpaceOnUse"><stop offset=".4" stop-color="#dc9794"/><stop offset=".9" stop-color="#ecaa0c"/></linearGradient><linearGradient id="anБезымянный_градиент_36" x1="30.33" y1="30.85" x2="61.94" y2="-.75" gradientUnits="userSpaceOnUse"><stop offset=".4" stop-color="#222"/><stop offset="1" stop-color="#4d4d4d"/></linearGradient><filter id="anluminosity-noclip" x="0" y="-8231.36" width="66.78" height="32766" filterUnits="userSpaceOnUse" color-interpolation-filters="sRGB"><feFlood flood-color="#fff" result="bg"/><feBlend in="SourceGraphic" in2="bg"/></filter><filter id="anluminosity-noclip-2" x="0" y="49.28" width="66.78" height="18.2" filterUnits="userSpaceOnUse" color-interpolation-filters="sRGB"><feFlood flood-color="#fff" result="bg"/><feBlend in="SourceGraphic" in2="bg"/></filter><style>.ancls-1{mask:url(#mask);filter:url(#anluminosity-noclip-2)}.ancls-2{mix-blend-mode:multiply;fill:url(#anlinear-gradient)}.ancls-3{fill:#ecaa0c}.ancls-4{fill:url(#anБезымянный_градиент_21)}.ancls-5{mask:url(#anmask-2)}.ancls-6{fill:url(#anБезымянный_градиент_28)}.ancls-7{fill:#222}.ancls-8{fill:url(#anБезымянный_градиент_36)}.cls-9{filter:url(#anluminosity-noclip)}</style><mask id="anmask-2" x="0" y="49.28" width="66.78" height="18.2" maskUnits="userSpaceOnUse"><g class="ancls-1"><path class="ancls-2" d="M50.08 50.12C30.62 62.18 10.43 64.19 2.48 54a15.18 15.18 0 01-2.3-4.29L0 49.7A20.42 20.42 0 004 59c10.46 13.5 36.87 10.58 59-6.56 1.33-1 2.6-2.08 3.83-3.16-4.71.42-10.28.72-16.75.84z"/></g></mask></defs><g id="anСлой_2" data-name="Слой 2"><g id="anСлой_1-2" data-name="Слой 1"><path class="ancls-3" d="M50.08 50.12C30.62 62.18 10.43 64.19 2.48 54a15.18 15.18 0 01-2.3-4.29L0 49.7A20.42 20.42 0 004 59c10.46 13.5 36.87 10.58 59-6.56 1.33-1 2.6-2.08 3.83-3.16-4.71.42-10.28.72-16.75.84z"/><path class="ancls-4" d="M2.48 54a15.18 15.18 0 01-2.3-4.29H.11a20.18 20.18 0 003 6C13 69 37.58 66.33 58.45 49.85c-2.6.13-5.39.23-8.37.27C30.62 62.18 10.43 64.19 2.48 54z"/><g class="ancls-5"><path class="ancls-6" d="M50.08 50.12C30.62 62.18 10.43 64.19 2.48 54a15.18 15.18 0 01-2.3-4.29L0 49.7A20.42 20.42 0 004 59c10.46 13.5 36.87 10.58 59-6.56 1.33-1 2.6-2.08 3.83-3.16-4.71.42-10.28.72-16.75.84z"/></g><path class="ancls-7" d="M63.38 18.47c4.84 0 5.91.86 6 1.75s-.45 1.69-2 2.11c-1.53-1.51-2.8-2.76-4-3.86zm-12 16.11a6.56 6.56 0 004.53 1.63C57 36.25 71.84 36.64 74 35s1.46-4.81-.15-5.05-20 .24-22.85.52-1.8 2.45.37 4.11zm-3.78-22c-1.23-.13-2.44-.24-3.63-.32a12.16 12.16 0 00-5.71 1 64.51 64.51 0 00-7 3.74 1.46 1.46 0 00-.7.94 12.48 12.48 0 01-2.08 5 279.82 279.82 0 0137.05-.15c-6.36-7.29-13.64-9.7-17.94-10.17zm-18 35.64c-.57-3.62-1.35-8.35-2.34-12.13-1.79.22-3.22 3.52-3.22 7.58s1.53 7.6 3.42 7.6a1.32 1.32 0 00.34 0 2.21 2.21 0 01-1.52.7c-2.1 0-3.81-3.79-3.81-8.47s1.71-8.46 3.81-8.46a1.79 1.79 0 01.75.17c-.69-2.47-1.47-4.41-2.34-5.18-2.06-1.82-4.23-.44-4.57 5.46a42.24 42.24 0 00.09 5.51c.43 5.58 1.34 8.58 2.4 10.49 1.55 2.78 3.4 3 4.06 3.05 1.3.15 5.48 0 5.48 0 2.82-.08 3.59-2.08 4.1-4.52a252.11 252.11 0 0030.54-.72 4.57 4.57 0 004.49 3.15c1.93.06 3.63.07 5.14 0s3-.49 4.76-5.12c2.33-.45 3.5-.78 3.5-.78s.09-.5.18-1.35c-2.49.63-20.86 4.92-55.25 3.06zm-9.44-1.12c-3.51-1.19-6.23-1.79-11-2.94a11.4 11.4 0 00-.09 1.42 103 103 0 0111.47 3.16c-.1-.48-.24-1.03-.37-1.6zm28.18-11.85a18.74 18.74 0 00-5-4.07 29.68 29.68 0 00-5.57-2.47 50.16 50.16 0 00-7.5-1.71c-1.2-.18-2.41-.33-3.62-.42l-.39-.05-.05.2.67.11a49.73 49.73 0 017.3 2c.92.32 1.84.66 2.75 1l-7.77.08c2.24 5.61 6.52 6.37 7.42 6.55s9.16-.19 11.16-.27A12 12 0 0151 40.25h.16a15.45 15.45 0 00-2.82-5zM84 33.72A8.53 8.53 0 0081.67 29h-3a25.71 25.71 0 00-1.57 10h.18c0-.13.09-1.06.13-1.39a21.47 21.47 0 01.45-2.23c1.11 0 5.1-.25 5.57-.35s.74-.54.57-1.31zm-41.25 12c11.76 1.1 28.51.84 38-2.52 2-.7 1.63-2.12 1.54-2.5s-.46-.76-1.49-.66a378.83 378.83 0 01-40.44 1.7c-1.26-.03-2.16 3.53 2.43 3.96zm-25.91-5.54l-.74-.31c-.65-.25-1.3-.49-2-.71-1.06-.37-2.13-.73-3.2-1.08-.19.42-.37.84-.53 1.26l.27.06a35.27 35.27 0 006 1z"/><path class="ancls-7" d="M13.52 28.81C6.75 37.42 4.39 46.48 8.29 52.6a12 12 0 003.49 3.52l-.06.14A16 16 0 014 50.11c-4.37-6.89-2.45-16.66 4.09-25.86A70.9 70.9 0 0125.91 8.17a60.93 60.93 0 017.56-3.92C49-2.42 64.26-1.28 70.13 7.92a15.9 15.9 0 012.34 9.55h-.16a12 12 0 00-1.72-4.63c-5-7.91-19-8.4-33.46-2a57.69 57.69 0 00-5.24 2.67c-1.4.8-2.69 1.75-4 2.66-4.4 3-11.89 9.15-14.37 12.64z"/><path class="ancls-8" d="M70.13 7.92C64.26-1.28 49-2.42 33.47 4.25a64.58 64.58 0 00-7.56 3.92C24 9.34 14.24 18 16.23 16.24a4.29 4.29 0 013 1.24l.1.11c9-6.72 14.29-9.41 16.22-10.28C50.26.63 64.72 1.78 70.27 11a15.7 15.7 0 012.13 6.5h.07a15.9 15.9 0 00-2.34-9.58z"/><path class="ancls-3" d="M112.09 43.27a13.13 13.13 0 01-5.44 1c-5.81 0-10.18-3.67-10.18-10.43 0-6.45 4.37-10.82 10.76-10.82a11 11 0 014.89.92l-.64 2.17a9.66 9.66 0 00-4.16-.86c-4.83 0-8 3.09-8 8.5 0 5.05 2.91 8.29 7.92 8.29a10.63 10.63 0 004.34-.86zM118.88 37.46l-2.14 6.48H114l7-20.61h3.21l7 20.61h-2.84l-2.2-6.48zm6.76-2.08l-2-5.93c-.46-1.35-.77-2.57-1.07-3.76h-.06c-.31 1.22-.65 2.48-1 3.73l-2 6zM134.26 23.61a27.21 27.21 0 015.1-.43c2.85 0 4.68.52 6 1.68a5.15 5.15 0 011.64 3.92 5.43 5.43 0 01-3.94 5.22v.09c1.59.55 2.54 2 3 4.16a32.21 32.21 0 001.59 5.65h-2.75a26.08 26.08 0 01-1.35-4.9c-.61-2.84-1.71-3.91-4.13-4h-2.5v8.92h-2.66zm2.66 9.39h2.72c2.84 0 4.64-1.56 4.64-3.92 0-2.66-1.92-3.82-4.73-3.85a11.06 11.06 0 00-2.63.24z"/><path class="ancls-7" d="M157.18 23.33h11.1v2.24h-8.44v6.85h7.8v2.2h-7.8v9.32h-2.66zM173 37.46l-2.14 6.48h-2.75l7-20.61h3.21l7 20.61h-2.85l-2.2-6.48zm6.76-2.08l-2-5.93c-.46-1.35-.76-2.57-1.07-3.76h-.06c-.3 1.22-.64 2.48-1 3.73l-2 6zM205.65 34.89c-.16-2.87-.34-6.33-.31-8.9h-.09c-.71 2.42-1.56 5-2.6 7.83l-3.64 10h-2L193.66 34c-1-2.91-1.81-5.57-2.39-8h-.06c-.06 2.57-.21 6-.39 9.12l-.56 8.83h-2.53l1.43-20.61h3.4l3.51 10c.86 2.54 1.56 4.8 2.08 6.94h.1c.52-2.07 1.25-4.34 2.17-6.94l3.67-10h3.39l1.28 20.61h-2.59zM215.52 23.33v20.61h-2.66V23.33zM220.16 23.33h2.66v18.38h8.81v2.23h-11.47zM236.61 43.94V35.2l-6.51-11.87h3L236 29c.8 1.56 1.41 2.82 2.05 4.25h.06c.58-1.34 1.28-2.69 2.08-4.25l3-5.69h3l-6.89 11.86v8.77z"/></g></g></svg><svg viewBox="0 0 511.999 511.999" id="manager" xmlns="http://www.w3.org/2000/svg"><path d="M241.227 378.889c-3.851-2.826-9.27-2.001-12.1 1.852l-1.069 1.455a8.656 8.656 0 001.842 12.094 8.617 8.617 0 005.128 1.689 8.64 8.64 0 006.968-3.514l1.085-1.475a8.658 8.658 0 00-1.854-12.101z"/><path d="M243.486 461.241l-22.263-40.482 20.786-28.31a8.655 8.655 0 00-1.854-12.101 8.653 8.653 0 00-12.1 1.855l-24.058 32.765a8.657 8.657 0 00-.608 9.295l24.928 45.321v-.001a8.657 8.657 0 0011.757 3.413 8.655 8.655 0 003.412-11.755zM308.004 414.969l-23.96-32.632a8.658 8.658 0 00-13.955 10.251l20.684 28.172-22.111 40.207a8.657 8.657 0 1015.171 8.349l24.778-45.05a8.658 8.658 0 00-.607-9.297zM321.721 278.932a8.657 8.657 0 00-8.938.535c-5.149 3.547-9.927 7.305-14.201 11.168-23.296 21.06-45.429 18.21-46.296 18.086a8.44 8.44 0 00-1.578-.103c-9.207.236-25.807-8.177-43.368-21.969a141.54 141.54 0 00-8.19-5.975 8.655 8.655 0 00-13.499 7.174v29.696a8.66 8.66 0 003.997 7.293l61.381 41.016c.01.006.019.014.029.021l.162.108a8.657 8.657 0 004.781 1.439 8.677 8.677 0 004.878-1.502l.088-.058a6.02 6.02 0 00.102-.068l61.236-40.919a8.655 8.655 0 004.046-7.327v-30.951a8.655 8.655 0 00-4.63-7.664zm-12.684 33.982L256 348.354l-53.036-35.441v-7.873c12.914 9.385 31.911 20.896 47.396 20.895h.101c5.199.575 31.712 2.138 58.578-21.43v8.409z"/><path d="M264.539 357.343a8.656 8.656 0 00-15.516-3.7l-19.897 27.101a8.655 8.655 0 001.855 12.101 8.61 8.61 0 005.116 1.68 8.65 8.65 0 006.986-3.536l19.793-26.958a8.644 8.644 0 001.663-6.688zM387.881 78.272c-.172-1.356-4.227-30.622-31.775-42.167.8-5.14.716-11.746-2.547-18.173-4.386-8.638-13.041-14.267-25.726-16.733a8.625 8.625 0 00-1.651-.159H209.995c-47.178 0-85.561 38.382-85.561 85.562v45.591c0 11.878 4.049 23.461 11.399 32.613 3.644 4.538 8.132 12.463 8.809 24.445a8.642 8.642 0 008.887 8.163 8.656 8.656 0 008.412-8.653v-59.44c5.878-24.309 25.939-29.04 29.388-29.679h37.582c4.421 0 8.768-.675 12.923-2.007 7.146-2.292 18.483-6.51 26.737-9.645a25.094 25.094 0 0117.213-.216l40.234 14.124c20.114 7.42 23.704 25.078 24.149 27.852v71.337a8.65 8.65 0 008.663 8.652 8.667 8.667 0 008.555-7.375c.034-.223 3.49-22.55 14.636-40.426 3.878-6.223 5.929-13.318 5.929-20.518V79.365c0-.365-.023-.73-.069-1.093zm-17.245 63.144c0 3.867-1.091 7.703-3.157 11.114v-23.372c0-.313-.017-.624-.051-.935-.136-1.257-3.713-30.923-35.498-42.599l-.117-.042-40.295-14.146a42.407 42.407 0 00-14.046-2.391c-5.108 0-10.213.921-15.05 2.761-11.556 4.39-20.505 7.621-25.876 9.343a24.98 24.98 0 01-7.636 1.181h-38.281c-.371 0-.743.024-1.112.071-1.465.19-35.992 5.1-44.681 44.045a8.662 8.662 0 00-.208 1.885v17.816a35.176 35.176 0 01-2.883-13.953v-45.59c0-37.632 30.617-68.249 68.248-68.249h115.315c4.774 1.017 10.576 3.104 12.777 7.35 2.695 5.197-.375 12.353-.378 12.359a8.656 8.656 0 005.809 12.095c22.038 5.305 26.533 26.442 27.119 29.861v61.396z"/><path d="M367.429 128.223c-.136-1.257-3.713-30.923-35.498-42.599l-.117-.042-40.295-14.146a42.451 42.451 0 00-29.097.368c-11.556 4.39-20.505 7.621-25.876 9.344a24.98 24.98 0 01-7.636 1.18h-38.281c-.371 0-.743.024-1.112.071-1.465.19-35.992 5.1-44.681 44.045a8.662 8.662 0 00-.208 1.885v74.416l.002.192c.057 2.585 1.886 63.632 44.066 91.551l.218.154c.181.128.362.256.551.383a124.829 124.829 0 017.182 5.241c12.288 9.649 35.445 25.67 53.713 25.67h.101c.992.109 2.763.255 5.165.255 10.353 0 32.441-2.713 54.565-22.713 3.713-3.355 7.888-6.637 12.414-9.755l.647-.453c.211-.149.422-.299.64-.445 14.07-9.45 38.438-33.834 43.554-90.968.023-.256.035-.515.035-.773v-71.926a9.155 9.155 0 00-.052-.935zm-17.263 72.47c-4.717 51.562-26.686 71.551-35.928 77.758-.328.221-.652.449-.976.677l-.48.338c-5.149 3.547-9.927 7.305-14.201 11.168-23.209 20.982-45.27 18.23-46.352 18.078a8.706 8.706 0 00-1.522-.093c-9.207.236-25.807-8.177-43.368-21.969-2.686-2.11-5.44-4.12-8.186-5.973l-.213-.15a23.764 23.764 0 00-.659-.457c-34.038-22.529-36.265-75.25-36.34-77.45v-73.3c5.899-24.398 26.084-29.075 29.374-29.679h37.596c4.421 0 8.768-.675 12.923-2.007 7.146-2.292 18.484-6.51 26.737-9.645a25.094 25.094 0 0117.213-.216l40.234 14.124c20.114 7.42 23.704 25.078 24.149 27.852v70.944zM263.742 354.898a8.66 8.66 0 00-7.01-4.755 8.677 8.677 0 00-7.711 3.503l-20.736 28.242a8.658 8.658 0 001.848 12.097 8.618 8.618 0 005.122 1.685 8.644 8.644 0 006.975-3.522l20.737-28.138c1.097-1.488 1.689-3.39 1.689-5.238a8.674 8.674 0 00-.914-3.874zM264.297 494.276a8.654 8.654 0 00-12.097-.405l-1.979 1.81a8.655 8.655 0 00-1.716 10.607l.061.109a8.655 8.655 0 0013.68 1.9l1.917-1.919a8.654 8.654 0 00.134-12.102z"/><path d="M261.779 495.681l-1.979-1.81a8.657 8.657 0 00-11.963 12.51l1.92 1.919a8.654 8.654 0 0013.71-1.958l.061-.109a8.66 8.66 0 00-1.749-10.552z"/><path d="M261.925 495.816l-.011-.01a8.66 8.66 0 00-11.814-.014l-.026.024a8.656 8.656 0 00-.27 12.534l.091.091a8.63 8.63 0 006.104 2.518 8.632 8.632 0 006.12-2.534l.091-.091a8.656 8.656 0 002.533-6.32 8.647 8.647 0 00-2.818-6.198zM258.808 350.389c-3.585-1.148-7.519.183-9.702 3.253-2.442 3.438-2.039 8.123.936 11.112a8.637 8.637 0 006.135 2.544c1.739 0 3.487-.52 4.995-1.582a8.654 8.654 0 003.675-7.079v-.021c0-3.767-2.45-7.082-6.039-8.227z"/><path d="M263.034 353.571l-.074-.1a8.655 8.655 0 00-15.617 5.146v.148c0 3.187 1.789 6.092 4.597 7.6a8.615 8.615 0 004.078 1.02c1.691 0 3.38-.49 4.832-1.452a8.651 8.651 0 002.184-12.362z"/><path d="M358.979 326.377a8.648 8.648 0 00-5.174-5.083l-33.191-11.898a8.649 8.649 0 00-7.735.95l-61.498 41.094-.051.034 4.829 7.18-4.937-7.107a8.655 8.655 0 00-3.76 8.646 8.658 8.658 0 001.561 3.701l45.025 61.321a8.653 8.653 0 0014.562-.953l49.857-90.648a8.651 8.651 0 00.512-7.237zm-59.003 77.659l-31.645-43.1 50.542-33.773 19.533 7.003-38.43 69.87z"/><path d="M264.529 357.274a8.656 8.656 0 00-3.704-5.696l-61.703-41.231a8.664 8.664 0 00-7.735-.95l-33.191 11.898a8.653 8.653 0 00-4.663 12.32l49.857 90.648a8.658 8.658 0 007.585 4.485 8.66 8.66 0 006.978-3.535l24.058-32.765.057-.079 20.911-28.481a8.658 8.658 0 001.55-6.614zm-36.472 24.924l-.062.084-15.973 21.755-38.43-69.871 19.534-7.002 50.541 33.773-15.61 21.261zM511.571 474.155l-11.167-67.433c-3.519-21.251-18.288-39.006-38.544-46.332l-108.034-39.086a8.656 8.656 0 00-10.691 12.004l22.556 45.234-22.133.341a8.655 8.655 0 00-7.535 12.672l9.078 17.333-92.903 84.987a8.76 8.76 0 00-.279.266l-1.918 1.918a8.656 8.656 0 00-1.473 10.274l.068.123a8.66 8.66 0 007.595 4.502h224.171a31.576 31.576 0 0024.128-11.175 31.578 31.578 0 007.081-25.628zm-20.283 14.431a14.302 14.302 0 01-10.925 5.06H278.097l83.611-76.484a8.652 8.652 0 001.826-10.403l-5.648-10.783 21.826-.336a8.657 8.657 0 007.614-12.519l-19.037-38.176 87.686 31.723c14.375 5.2 24.856 17.8 27.353 32.881l11.167 67.433v.001a14.299 14.299 0 01-3.207 11.603z"/><path d="M262 495.885l-.101-.091a8.658 8.658 0 00-11.948.314l-.09.091a8.657 8.657 0 006.139 14.76h.19a8.655 8.655 0 008.076-5.543 8.653 8.653 0 00-2.266-9.531z"/><path d="M261.728 495.635a8.646 8.646 0 00-7.24-2.099 8.653 8.653 0 00-6.141 4.37l-.06.109a8.657 8.657 0 001.369 10.183l.031.032a8.631 8.631 0 006.222 2.637c2.085 0 4.176-.75 5.832-2.263l.091-.082a8.653 8.653 0 001.91-2.526c1.743-3.483.881-7.757-2.014-10.361z"/><path d="M262.102 496.164l-.036-.037-.069-.069-1.92-1.918a6.9 6.9 0 00-.277-.265l-92.903-84.987 9.079-17.333a8.658 8.658 0 00-7.534-12.672l-22.135-.341 22.556-45.234c1.58-3.168 1.07-6.979-1.283-9.622s-6.081-3.588-9.408-2.382L50.139 360.39c-20.256 7.325-35.026 25.08-38.545 46.332L.427 474.155a31.58 31.58 0 007.083 25.629 31.586 31.586 0 0024.128 11.174H256a8.654 8.654 0 006.102-14.794zm-230.463-2.518a14.295 14.295 0 01-10.924-5.06 14.302 14.302 0 01-3.206-11.604l11.167-67.433a42.36 42.36 0 0127.353-32.881l87.685-31.723-19.036 38.174a8.654 8.654 0 00.351 8.362 8.652 8.652 0 007.263 4.157l21.826.337-5.648 10.783a8.656 8.656 0 001.825 10.403l83.611 76.485H31.639z"/><path d="M285.464 389.557a8.657 8.657 0 00-1.421-7.224l-21.066-28.689c-2.214-3.016-6.118-4.215-9.672-3.049a8.632 8.632 0 00-4.552 3.522l-20.681 28.061a8.66 8.66 0 00-.144 10.094l8.807 12.647-9.382 59.137a8.661 8.661 0 00.965 5.528l20.098 36.541a8.656 8.656 0 0015.17 0l20.248-36.812a8.665 8.665 0 001.071-4.171v-.005c0-.454-.037-.908-.107-1.357l-9.339-58.86 8.712-12.508a8.758 8.758 0 001.293-2.855zm-29.463 94.435l-11.085-20.153 9.464-59.649a8.652 8.652 0 00-1.446-6.303l-7.254-10.418 10.346-14.038 10.4 14.164-7.167 10.292a8.656 8.656 0 00-1.446 6.303l9.421 59.377-11.233 20.425z"/></svg><svg viewBox="0 0 384 384" id="menu" xmlns="http://www.w3.org/2000/svg"><path d="M0 277.333h384V320H0zM0 170.667h384v42.667H0zM0 64h384v42.667H0z"/></svg><svg viewBox="0 0 124 124" id="minus" xmlns="http://www.w3.org/2000/svg"><path d="M112 50H12C5.4 50 0 55.4 0 62s5.4 12 12 12h100c6.6 0 12-5.4 12-12s-5.4-12-12-12z"/></svg><svg viewBox="-19 0 444 444.68" id="money-bag" xmlns="http://www.w3.org/2000/svg"><path d="M166.477 294.04l96.414 25.792a32.271 32.271 0 0121.687 19.84l89.281-51.52a31.34 31.34 0 0110.207-3.695l-.796-3.137a230.192 230.192 0 01-6.93-56.242V188.68c0-66.274-53.727-120-120-120-66.274 0-120 53.726-120 120v36.398a230.26 230.26 0 01-6.961 56.274l-2.809 11.328h29.602c3.48 0 6.945.46 10.305 1.36zm89.863-89.36c-31.399 0-56-17.602-56-40 0-20.48 20.527-36.864 48-39.567V100.68h16v24.433c27.472 2.703 48 19.086 48 39.567h-16c0-13.008-18.32-24-40-24s-40 10.992-40 24c0 13.007 18.32 24 40 24 31.398 0 56 17.601 56 40 0 20.48-20.528 36.863-48 39.566v24.434h-16v-24.434c-27.473-2.703-48-19.086-48-39.566h16c0 13.007 18.32 24 40 24s40-10.993 40-24c0-13.008-18.32-24-40-24zm0 0M198.293 1.223L192.156 0l32.801 56.488a131.997 131.997 0 0162.887 0L320.563.016l-6.141 1.222a294.454 294.454 0 01-116.129-.015zm0 0"/><path d="M92.941 312.09L64.34 329.215v86.183L93.69 427a24.068 24.068 0 008.801 1.68h128.719a23.907 23.907 0 0012.633-3.602l153.785-95.2a15.998 15.998 0 008.152-14 16.333 16.333 0 00-2.176-8.077 15.54 15.54 0 00-6.73-6.235 15.185 15.185 0 00-4.063-1.343 15.868 15.868 0 00-10.953 1.785l-96.101 55.52c-.106.495-.106 1.007-.242 1.495-3.77 13.993-16.446 23.72-30.938 23.739a77.378 77.378 0 01-12.91-2.282l-83.39-22.312 4.124-15.457 83.121 22.242c3.375.8 8.082 1.727 9.274 1.809a16.004 16.004 0 0015.254-11.84c.207-.961.363-1.93.465-2.906 0 0 .054-1.938 0-2.817a16.122 16.122 0 00-11.801-13.918l-96.375-25.8a23.724 23.724 0 00-6.2-.801h-50.87c-4.344 0-8.606 1.18-12.329 3.41zm0 0M.34 300.68h48v144h-48zm0 0"/></svg><svg viewBox="0 0 132.6 240.82" id="next" xmlns="http://www.w3.org/2000/svg"><g data-name="Слой 2"><g data-name="Capa 1"><path data-name="Chevron Right" d="M129.09 111.81L20.79 3.55a12.17 12.17 0 10-17.21 17.2l99.69 99.67-99.71 99.67a12.16 12.16 0 0017.22 17.18L129.08 129a12.28 12.28 0 00.01-17.19z"/></g></g></svg><svg viewBox="0 0 58 58" id="phone-call" xmlns="http://www.w3.org/2000/svg"><g fill="#000" fill-rule="nonzero"><path d="M24.017 33.983c-5.536-5.536-6.786-11.072-7.068-13.29a1.988 1.988 0 01.571-1.664L22 14.551a2 2 0 00.282-2.475L15.149 1a2 2 0 00-2.591-.729L1.107 5.664a1.989 1.989 0 00-1.1 1.987c.6 5.7 3.085 19.712 16.855 33.483s27.78 16.255 33.483 16.855a1.989 1.989 0 001.987-1.1l5.393-11.451A2 2 0 0057 42.851L45.924 35.72a2 2 0 00-2.475.28l-4.478 4.48c-.436.439-1.05.65-1.664.571-2.218-.282-7.754-1.532-13.29-7.068z"/><path d="M46 31a2 2 0 01-2-2c-.01-8.28-6.72-14.99-15-15a2 2 0 110-4c10.489.012 18.988 8.511 19 19a2 2 0 01-2 2z"/><path d="M56 31a2 2 0 01-2-2C53.985 15.2 42.8 4.015 29 4a2 2 0 110-4c16.009.018 28.982 12.991 29 29a2 2 0 01-2 2z"/></g></svg><svg viewBox="0 0 512 512" id="pin" xmlns="http://www.w3.org/2000/svg"><path d="M256 0C161.896 0 85.333 76.563 85.333 170.667c0 28.25 7.063 56.26 20.49 81.104L246.667 506.5c1.875 3.396 5.448 5.5 9.333 5.5s7.458-2.104 9.333-5.5l140.896-254.813c13.375-24.76 20.438-52.771 20.438-81.021C426.667 76.563 350.104 0 256 0zm0 256c-47.052 0-85.333-38.281-85.333-85.333S208.948 85.334 256 85.334s85.333 38.281 85.333 85.333S303.052 256 256 256z"/></svg><svg viewBox="0 0 192.904 192.904" id="search" xmlns="http://www.w3.org/2000/svg"><path d="M190.707 180.101l-47.078-47.077c11.702-14.072 18.752-32.142 18.752-51.831C162.381 36.423 125.959 0 81.191 0 36.422 0 0 36.423 0 81.193c0 44.767 36.422 81.187 81.191 81.187 19.688 0 37.759-7.049 51.831-18.751l47.079 47.078a7.474 7.474 0 005.303 2.197 7.498 7.498 0 005.303-12.803zM15 81.193C15 44.694 44.693 15 81.191 15c36.497 0 66.189 29.694 66.189 66.193 0 36.496-29.692 66.187-66.189 66.187C44.693 147.38 15 117.689 15 81.193z"/></svg><svg fill="none" viewBox="0 0 370 369" id="secure-data" xmlns="http://www.w3.org/2000/svg"><path fill-rule="evenodd" clip-rule="evenodd" d="M189.3 256.4h173c4.1 0 7.5 3.4 7.5 7.5v97.2c0 4.2-3.4 7.5-7.5 7.5h-173c-4.2 0-7.5-3.4-7.5-7.5v-97.2c0-4.1 3.4-7.5 7.5-7.5zm93.2 57.2v17.6h-13.3v-17.6c-2.7-2.1-4.4-5.3-4.4-8.8 0-6.1 4.9-11 11-11s11 4.9 11 11c0 3.5-1.6 6.7-4.3 8.8z" fill="#222"/><path fill-rule="evenodd" clip-rule="evenodd" d="M330.3 267.1v-44.8c0-14.5-5.8-28.2-16-38.4s-24-16-38.4-16c-14.5 0-28.2 5.8-38.4 16s-16 24-16 38.4v44.8h-18.1v-44.8c0-19.3 7.7-37.6 21.3-51.3 13.6-13.6 32-21.3 51.3-21.3 19.3 0 37.6 7.7 51.3 21.3 13.6 13.6 21.3 32 21.3 51.3v44.8h-18.3z" fill="#222"/><path fill-rule="evenodd" clip-rule="evenodd" d="M261 145.4V5.8c0-3.2-2.6-5.8-5.8-5.8H5.8C2.6 0 0 2.6 0 5.8v357.1c0 3.2 2.6 5.8 5.8 5.8h172.6c-1.5-2.1-2.4-4.7-2.4-7.5V313H34.5v-11.5H176V264c0-5.6 3.5-10.4 8.5-12.4h-150V240h163v-17.7c0-11.3 2.4-22.2 7-32.3h-170v-11.5H211c2.8-4.1 6-8 9.6-11.6 11.1-11.1 25.2-18.5 40.4-21.5zM34.5 117.1H219v11.5H34.5v-11.5zM219 55.7v11.5H34.5V55.7H219z" fill="#222"/></svg><svg viewBox="0 0 512 512" id="settings" xmlns="http://www.w3.org/2000/svg"><path d="M272.066 512h-32.133c-25.989 0-47.134-21.144-47.134-47.133v-10.871a206.698 206.698 0 01-32.097-13.323l-7.704 7.704c-18.659 18.682-48.548 18.134-66.665-.007l-22.711-22.71c-18.149-18.129-18.671-48.008.006-66.665l7.698-7.698A206.714 206.714 0 0158.003 319.2h-10.87C21.145 319.2 0 298.056 0 272.067v-32.134C0 213.944 21.145 192.8 47.134 192.8h10.87a206.755 206.755 0 0113.323-32.097L63.623 153c-18.666-18.646-18.151-48.528.006-66.665l22.713-22.712c18.159-18.184 48.041-18.638 66.664.006l7.697 7.697A206.893 206.893 0 01192.8 58.003v-10.87C192.8 21.144 213.944 0 239.934 0h32.133C298.056 0 319.2 21.144 319.2 47.133v10.871a206.698 206.698 0 0132.097 13.323l7.704-7.704c18.659-18.682 48.548-18.134 66.665.007l22.711 22.71c18.149 18.129 18.671 48.008-.006 66.665l-7.698 7.698a206.714 206.714 0 0113.323 32.097h10.87c25.989 0 47.134 21.144 47.134 47.133v32.134c0 25.989-21.145 47.133-47.134 47.133h-10.87a206.755 206.755 0 01-13.323 32.097l7.704 7.704c18.666 18.646 18.151 48.528-.006 66.665l-22.713 22.712c-18.159 18.184-48.041 18.638-66.664-.006l-7.697-7.697a206.893 206.893 0 01-32.097 13.323v10.871c0 25.987-21.144 47.131-47.134 47.131zM165.717 409.17a176.812 176.812 0 0045.831 19.025 14.999 14.999 0 0111.252 14.524v22.148c0 9.447 7.687 17.133 17.134 17.133h32.133c9.447 0 17.134-7.686 17.134-17.133v-22.148a14.999 14.999 0 0111.252-14.524 176.812 176.812 0 0045.831-19.025 15 15 0 0118.243 2.305l15.688 15.689c6.764 6.772 17.626 6.615 24.224.007l22.727-22.726c6.582-6.574 6.802-17.438.006-24.225l-15.695-15.695a15 15 0 01-2.305-18.242 176.78 176.78 0 0019.024-45.831 15 15 0 0114.524-11.251h22.147c9.447 0 17.134-7.686 17.134-17.133v-32.134c0-9.447-7.687-17.133-17.134-17.133H442.72a15 15 0 01-14.524-11.251 176.815 176.815 0 00-19.024-45.831 15 15 0 012.305-18.242l15.689-15.689c6.782-6.774 6.605-17.634.006-24.225l-22.725-22.725c-6.587-6.596-17.451-6.789-24.225-.006l-15.694 15.695a15 15 0 01-18.243 2.305 176.812 176.812 0 00-45.831-19.025 14.999 14.999 0 01-11.252-14.524v-22.15c0-9.447-7.687-17.133-17.134-17.133h-32.133c-9.447 0-17.134 7.686-17.134 17.133v22.148a14.999 14.999 0 01-11.252 14.524 176.812 176.812 0 00-45.831 19.025 15.002 15.002 0 01-18.243-2.305l-15.688-15.689c-6.764-6.772-17.627-6.615-24.224-.007l-22.727 22.726c-6.582 6.574-6.802 17.437-.006 24.225l15.695 15.695a15 15 0 012.305 18.242 176.78 176.78 0 00-19.024 45.831 15 15 0 01-14.524 11.251H47.134C37.687 222.8 30 230.486 30 239.933v32.134c0 9.447 7.687 17.133 17.134 17.133h22.147a15 15 0 0114.524 11.251 176.815 176.815 0 0019.024 45.831 15 15 0 01-2.305 18.242l-15.689 15.689c-6.782 6.774-6.605 17.634-.006 24.225l22.725 22.725c6.587 6.596 17.451 6.789 24.225.006l15.694-15.695c3.568-3.567 10.991-6.594 18.244-2.304z"/><path d="M256 367.4c-61.427 0-111.4-49.974-111.4-111.4S194.573 144.6 256 144.6 367.4 194.574 367.4 256 317.427 367.4 256 367.4zm0-192.8c-44.885 0-81.4 36.516-81.4 81.4s36.516 81.4 81.4 81.4 81.4-36.516 81.4-81.4-36.515-81.4-81.4-81.4z"/></svg><svg viewBox="0 0 512 512" id="speedometer" xmlns="http://www.w3.org/2000/svg"><path d="M354.335 448.699l18.119 35.66a255.134 255.134 0 01-40.161 16.271l-11.807-38.218a214.954 214.954 0 0033.849-13.713zm31.07-19.259l23.871 32.097a258.112 258.112 0 0032.453-28.682l-28.916-27.638a218.022 218.022 0 01-27.408 24.223zm50.364-52.7l33.146 22.39a256.332 256.332 0 0021.132-37.842l-36.453-16.467a216.329 216.329 0 01-17.825 31.919zM471.877 274a226.326 226.326 0 01-.628 6.372l.019.001a215.881 215.881 0 01-5.522 29.983l38.721 10.033a256.067 256.067 0 007.265-42.717l-.029-.002c.106-1.222.212-2.444.298-3.67zM472 66v54.061c-18.231-29.102-42.216-54.329-70.869-74.281C358.121 15.831 307.589 0 255 0 186.659 0 122.535 26.644 74.439 75.023 26.437 123.308 0 187.58 0 256c0 68.419 26.437 132.692 74.439 180.978C122.535 485.356 186.659 512 255 512h20v-80h-40v39.073a212.54 212.54 0 01-66.698-17.43l17.843-29.957-34.366-20.469-18.366 30.836c-19.612-13.559-36.874-30.307-51.059-49.483l31.609-18.249-20-34.641-32.335 18.669A215.046 215.046 0 0140.922 276H80v-40H40.93a215.09 215.09 0 0119.49-71.814l31.895 18.997 20.469-34.366-32.091-19.114a217.3 217.3 0 0150.717-50.348L149.68 111l34.641-20-18.264-31.634A212.546 212.546 0 01236 40.853V80h40V40.996c24.868 2.367 48.649 8.913 70.536 19.077L328.68 91l34.641 20 17.758-30.758c24.04 17.245 44.523 39.509 59.944 65.758H393v40h119V66zM355.142 185.142l-28.284-28.284-60.508 60.508A39.893 39.893 0 00256 216c-22.056 0-40 17.944-40 40s17.944 40 40 40 40-17.944 40-40c0-3.579-.48-7.047-1.365-10.35z"/></svg><svg viewBox="0 0 464 464" id="team" xmlns="http://www.w3.org/2000/svg"><path d="M84.008 178.602L88 180.91v25.336l-18.191 4.547L112 235.406l-.305 14.793-.648 2.266L136 246.91v-5.926c0-10.754 4.344-20.601 11.457-27.879l-27.45-6.859-.03-25.316 4-2.313C136.328 171.465 144 158.2 144 144v-13.984c0-22.512-17.39-41.352-38.77-41.993-10.832-.421-21.253 3.672-29.085 11.266C68.313 106.887 64 117.09 64 128v16c0 14.2 7.664 27.465 20.008 34.602zm0 0M143.625 89.266C162.425 59 195.84 40 232 40c35.902 0 69.223 18.824 88.078 48.793.32-.32.602-.672.93-.992 4.984-4.84 10.71-8.57 16.887-11.227l9.074-21.246-25.528-25.535-22.496 14.64-4.304-2.64c-10.786-6.61-22.442-11.45-34.641-14.367l-4.93-1.188L249.512 0H214.48l-5.55 26.238-4.922 1.176c-12.2 2.922-23.856 7.762-34.64 14.371l-4.305 2.64-22.497-14.64-25.558 25.559 8.976 21.398c6.625 2.985 12.61 7.258 17.641 12.524zm0 0M0 184v146.23l34.336 11.45 29.031-116.121zm0 0"/><path d="M328 189.902c-14.91-10.414-24-27.59-24-45.902v-16c0-8.816 2.07-17.273 5.879-24.91C294.742 74.375 264.633 56 232 56c-32.945 0-63.184 18.625-78.207 47.734 3.941 7.93 6.207 16.868 6.207 26.282V144c0 18.313-9.098 35.504-24.008 45.91v3.832L168 201.754l32-8.012v-3.84c-14.91-10.414-24-27.59-24-45.902v-16c0-15.281 6.04-29.55 17.008-40.191 10.96-10.641 25.398-16.223 40.71-15.786C263.649 72.93 288 98.938 288 130.016V144c0 18.313-9.098 35.504-24.008 45.91v3.832L296 201.754l32-8.012zm0 0M96 244.594l-18.246-10.64-28.203 112.8L65.297 352h.672L96 246.879zm0 0"/><path d="M170.176 217.695A23.983 23.983 0 00152 240.985v2.367l4.586-1.016c16.894-3.742 34.758-2.953 51.262 2.336l36.214 11.574c4.008.152 8 .594 11.868 1.7L305.12 272h4.902l1.977-1.04v-29.976c0-11.03-7.48-20.609-18.176-23.289l-45.816-11.449-.031-25.316 4-2.313C264.328 171.465 272 158.2 272 144v-13.984c0-22.512-17.39-41.352-38.77-41.993-10.796-.421-21.253 3.672-29.085 11.266C196.312 106.887 192 117.09 192 128v16c0 14.2 7.664 27.465 20.008 34.602L216 180.91v25.336zm0 0M320 128v16c0 14.2 7.664 27.465 20.008 34.602L344 180.91v25.336l-27.457 6.86c7.105 7.277 11.457 17.117 11.457 27.878v21.551l87.977-46.305-39.97-9.984-.03-25.316 4-2.313C392.328 171.465 400 158.2 400 144v-13.984c0-22.512-17.39-41.352-38.77-41.993-10.855-.421-21.246 3.672-29.085 11.266C324.312 106.887 320 117.09 320 128zm0 0M249.55 316.168c-5.167-4.648-13.198-5.441-19.183-1.848l-29.793 17.864A26.712 26.712 0 01186.801 336C172.023 336 160 323.977 160 309.2v-1.583c0-10.21 5.672-19.394 14.816-23.969l39.954-19.976-11.786-3.77c-13.824-4.422-28.761-5.109-42.922-1.941l-54.007 12.008-21.543 75.398 24.578 14.746c.703-.945 1.398-1.898 2.238-2.738l14.063-14.062c4.632-4.649 11.066-7.313 17.64-7.313 13.465 0 24.41 10.734 24.88 24.09 13.05.46 23.538 10.95 24 24 13.05.46 23.538 10.95 24 24 9.464.336 17.546 5.941 21.48 13.98l17.855 14.883a13.176 13.176 0 008.41 3.047c4.602 0 8.344-3.742 8.344-8.344a8.325 8.325 0 00-3-6.41l-42.129-35.101 10.25-12.297 43.453 36.207A8.309 8.309 0 00285.91 416h1.746c4.602 0 8.344-3.742 8.344-8.344a8.325 8.325 0 00-3-6.41l-42.129-35.101 10.25-12.297L304.504 390a8.599 8.599 0 005.504 2h1.383c4.754 0 8.609-3.855 8.609-8.602a8.63 8.63 0 00-2.848-6.398zm0 0"/><path d="M313.977 288l-12.168-.305-50.274-14.36c-8.23-2.366-17.297-1.503-24.933 2.313l-44.625 22.313c-3.688 1.848-5.977 5.543-5.977 9.656v1.582c0 5.953 4.84 10.801 10.8 10.801 1.954 0 3.864-.527 5.536-1.527l29.8-17.871A32.134 32.134 0 01238.712 296a32.147 32.147 0 0121.555 8.273l67.582 60.832c.48.43.937.872 1.375 1.336L464 299.055v-90.016zm0 0M237.727 443.191c-1.23 2.746-2.895 5.29-5.04 7.434l-6.007 6.008 5.984 5.277a8.305 8.305 0 005.512 2.09h1.48c4.602 0 8.344-3.742 8.344-8.344a8.325 8.325 0 00-3-6.41zm0 0M215.031 424a9.03 9.03 0 00-6.344 2.625l-14.062 14.063A9.03 9.03 0 00192 447.03c0 4.946 4.023 8.969 8.969 8.969a9.03 9.03 0 006.344-2.625l14.062-14.063A9.03 9.03 0 00224 432.97c0-4.946-4.023-8.969-8.969-8.969zm0 0M176 384.969c0-4.946-4.023-8.969-8.969-8.969a9.03 9.03 0 00-6.344 2.625l-14.062 14.063A9.03 9.03 0 00144 399.03c0 4.946 4.023 8.969 8.969 8.969a9.03 9.03 0 006.344-2.625l14.062-14.063A9.03 9.03 0 00176 384.97zm0 0M200 408.969c0-4.946-4.023-8.969-8.969-8.969a9.03 9.03 0 00-6.344 2.625l-14.062 14.063A9.03 9.03 0 00168 423.03c0 4.946 4.023 8.969 8.969 8.969a9.03 9.03 0 006.344-2.625l14.062-14.063A9.03 9.03 0 00200 408.97zm0 0M152 360.969c0-4.946-4.023-8.969-8.969-8.969a9.03 9.03 0 00-6.344 2.625l-14.062 14.063A9.03 9.03 0 00120 375.03c0 4.946 4.023 8.969 8.969 8.969a9.03 9.03 0 006.344-2.625l14.062-14.063A9.03 9.03 0 00152 360.97zm0 0"/></svg><svg viewBox="0 0 242.667 242.667" id="telegram" xmlns="http://www.w3.org/2000/svg"><path d="M162.443 86.061l-54.044 50.235a11.199 11.199 0 00-3.473 6.704l-1.839 13.641c-.245 1.82-2.806 2.003-3.308.237l-7.08-24.875a6.593 6.593 0 012.883-7.418l65.484-40.334c1.175-.723 2.388.87 1.377 1.81zM242.667 0v242.667H0V0h242.667zm-54.002 58.301l-137.51 53.047c-3.39 1.308-3.364 6.114.04 7.385L84.7 131.24l12.97 41.708c.831 2.671 4.099 3.656 6.267 1.888l18.677-15.226a5.566 5.566 0 016.788-.19l33.689 24.459c2.319 1.684 5.604.414 6.187-2.392l24.675-118.699c.637-3.061-2.37-5.613-5.288-4.487z"/></svg><svg viewBox="0 0 682.667 682" id="telegram(2)" xmlns="http://www.w3.org/2000/svg"><path d="M640-1.668L0 270.372l167.777 66.585 59.727 224.508L337.48 454.906l178.918 123.57zM236.219 365.734l-6.457 58.536-24.801-93.235L640-1.668zm0 0" fill="#fff" data-original="#000000"/></svg><svg viewBox="0 0 455.731 455.731" id="whatsapp" xmlns="http://www.w3.org/2000/svg"><path d="M228.071 95.321c-72.877 0-132.167 59.29-132.167 132.167 0 25.393 7.217 50.052 20.869 71.311l3.281 5.109-12.855 45.658 47.238-12.16 4.872 2.975c20.654 12.609 44.432 19.274 68.762 19.274 72.877 0 132.166-59.29 132.166-132.167S300.948 95.321 228.071 95.321zm81.046 172.788l-1.649 7.702c-1.86 8.69-7.021 16.377-14.508 21.166-9.453 6.047-21.706 9.016-37.28 4.612-48.333-13.667-75.667-45.667-90.333-65.667-14.667-20-20.333-40-16.667-56.333 2.459-10.954 10.465-19.359 15.472-23.708a12.492 12.492 0 018.878-3.037l10.328.563a5.352 5.352 0 014.629 3.24l15.045 35.201a5.35 5.35 0 01-.872 5.602l-13.096 15.15a3.959 3.959 0 00-.499 4.419c17.248 33.224 48.682 46.389 58.066 49.687a3.92 3.92 0 004.407-1.312l13.703-17.764a5.35 5.35 0 016.477-1.591l34.905 16.089a5.352 5.352 0 012.994 5.981z"/><path d="M0 0v455.731h455.731V0H0zm228.071 386.655c-27.347 0-54.125-7-77.814-20.292L68.494 387.41l22.323-79.284c-14.355-24.387-21.913-52.134-21.913-80.638 0-87.765 71.402-159.167 159.167-159.167s159.166 71.402 159.166 159.167-71.401 159.167-159.166 159.167z"/></svg><svg viewBox="0 0 512 512" id="whatsapp(2)" xmlns="http://www.w3.org/2000/svg"><path d="M440.164 71.836C393.84 25.511 332.249 0 266.737 0S139.633 25.511 93.308 71.836 21.473 179.751 21.473 245.263c0 41.499 10.505 82.279 30.445 118.402L0 512l148.333-51.917c36.124 19.938 76.904 30.444 118.403 30.444 65.512 0 127.104-25.512 173.427-71.836C486.488 372.367 512 310.776 512 245.263S486.488 118.16 440.164 71.836zm-52.179 264.539L359.67 364.69c-23.456 23.456-90.011-5.066-148.652-63.708-58.642-58.642-87.165-125.195-63.708-148.652l28.314-28.314c5.864-5.864 15.372-5.864 21.236 0l35.393 35.393c5.864 5.864 5.864 15.372 0 21.236l-21.236 21.236a208.346 208.346 0 0099.102 99.101l21.236-21.236c5.864-5.864 15.372-5.864 21.236 0l35.393 35.393c5.865 5.865 5.865 15.372.001 21.236z" fill="#fff" data-original="#000000"/></svg></svg>